<svg data-v-0dd9719b="" version="1.0" xmlns="http://www.w3.org/2000/svg" xmlns:xlink="http://www.w3.org/1999/xlink" width="100%" height="100%" viewBox="0 0 340.000000 250.000000" preserveAspectRatio="xMidYMid meet" color-interpolation-filters="sRGB" style="margin: auto;"> <rect data-v-0dd9719b="" x="0" y="0" width="100%" height="100%" fill="#fff" fill-opacity="1" class="background"></rect> <rect data-v-0dd9719b="" x="0" y="0" width="100%" height="100%" fill="url(#watermark)" fill-opacity="1" class="watermarklayer"></rect> <g data-v-0dd9719b="" fill="#e72e5d" class="icon-text-wrapper icon-svg-group iconsvg" transform="translate(49.171592712402344,89.33369445800781)"><g class="iconsvg-imagesvg" transform="translate(0,0)"><g><rect fill="#e72e5d" fill-opacity="0" stroke-width="2" x="0" y="0" width="60" height="71.33261208136673" class="image-rect"></rect> <svg x="0" y="0" width="60" height="71.33261208136673" filtersec="colorsb5860803779" class="image-svg-svg primary" style="overflow: visible;"><svg xmlns="http://www.w3.org/2000/svg" viewBox="0 0 35.58000183105469 42.29999923706055"><title>资源 4</title><g id="图层_2" data-name="图层 2"><g id="Layer_1" data-name="Layer 1"><path d="M8.22,25.26H0V17H8.22ZM35.58,14.75H22.78v12.8h12.8ZM8.22,35.36H0V27.14H8.22ZM35.58,29.5H22.78V42.3h12.8Zm0-29.5H22.78V12.81h12.8ZM8.22,15.16H0V6.94H8.22Z" fill="#e72e5d"></path><path d="M20.76,15.92H10.29V26.38H20.76Zm0,12.41H10.29V38.8H20.76Zm0-24.83H10.29V14H20.76Z" fill="#ffa047"></path></g></g></svg></svg> <!----></g></g> <g transform="translate(67,7.06651496887207)"><g data-gra="path-name" fill-rule="" class="tp-name iconsvg-namesvg" transform="translate(0,0)"><g transform="scale(1)"><g><path d="M5.71 3.65L5.71 3.65Q6.33 3.96 7.71 3.54 9.1 3.12 9.76 2.42L9.76 2.42Q9.93 2.2 9.95 1.85 9.98 1.49 9.89-0.4L9.89-0.4Q9.76-3.52 9.73-13.07 9.71-22.63 9.84-22.94L9.84-22.94Q10.02-23.33 10.28-23.42L10.28-23.42Q10.9-23.6 17.67-23.6L17.67-23.6Q18.41-23.6 19.64-23.6L19.64-23.6Q24.21-23.6 24.92-23.4 25.62-23.2 25.36-21.97L25.36-21.97Q25.27-21.58 25.22-21.31L25.22-21.31Q24.35-16.04 23.25-15.47L23.25-15.47Q22.9-15.29 21.47-15.27 20.04-15.25 19.73-15.42L19.73-15.42Q19.38-15.6 19.4-15.8 19.42-16 19.86-16.79L19.86-16.79Q20.61-18.02 19.67-19.56 18.72-21.09 16.52-22.1L16.52-22.1Q14.55-23.03 14.55-22.5L14.55-22.5Q14.55-22.37 14.77-22.02L14.77-22.02Q16.22-19.25 16.52-17.27L16.52-17.27Q16.66-16.52 16.79-16.3L16.79-16.3Q17.4-15.64 16.22-15.34L16.22-15.34Q15.6-15.21 12.35-15.51L12.35-15.51Q11.73-15.6 11.73-15.42L11.73-15.42Q11.73-15.25 12.13-14.41L12.13-14.41Q12.48-13.67 12.68-13.54 12.88-13.4 13.36-13.54L13.36-13.54Q14.77-13.84 16.94-13.97 19.12-14.11 19.51-13.89L19.51-13.89Q20.17-13.54 20.19-11.25 20.21-8.96 19.56-8.61L19.56-8.61Q19.29-8.48 16.68-8.5 14.06-8.53 12.44-8.66L12.44-8.66Q11.38-8.75 11.27-8.64 11.16-8.53 11.6-7.65L11.6-7.65Q12.04-6.81 12.24-6.72 12.44-6.64 13.54-6.81L13.54-6.81Q19.42-7.78 20.04-6.59L20.04-6.59Q20.17-6.28 20.15-3.63 20.13-0.97 20 0.66L20 0.66Q19.86 2.15 20.3 2.5 20.74 2.86 22.24 2.55L22.24 2.55Q23.69 2.24 23.99 1.8 24.3 1.36 24.21-0.35L24.21-0.35Q23.99-5.14 24.17-5.89L24.17-5.89Q24.43-6.94 25.71-7.12L25.71-7.12Q26.15-7.16 29.09-7.21L29.09-7.21Q33.4-7.25 33.77-7.73 34.15-8.22 31.42-10.28L31.42-10.28Q30.32-11.12 29.99-11.07 29.66-11.03 28.83-10.02L28.83-10.02Q27.99-8.88 27.62-8.68 27.25-8.48 26.06-8.48L26.06-8.48Q24.65-8.48 24.39-8.85 24.13-9.23 24.13-11.21L24.13-11.21Q24.13-11.43 24.13-11.87L24.13-11.87Q24.08-13.4 24.48-13.67L24.48-13.67Q24.87-14.02 27.73-14.02L27.73-14.02Q28.48-14.02 28.87-14.02L28.87-14.02Q33.18-14.06 33.44-14.46L33.44-14.46Q33.66-14.77 32.43-15.91L32.43-15.91Q30.85-17.36 30.28-17.47 29.71-17.58 28.92-16.66L28.92-16.66Q28.3-15.82 27.93-15.58 27.55-15.34 26.89-15.29L26.89-15.29Q25.71-15.25 25.73-15.75 25.75-16.26 26.89-17.53L26.89-17.53Q27.38-18.11 28.3-19.2L28.3-19.2Q29.58-20.7 30.1-20.87L30.1-20.87Q31.2-21.18 29-22.1L29-22.1Q27.16-22.9 27.16-23.2L27.16-23.2Q27.16-23.6 31.25-23.6L31.25-23.6Q31.77-23.6 32.65-23.64L32.65-23.64Q34.76-23.73 35.09-22.83 35.42-21.93 35.38-16.35L35.38-16.35Q35.38-13.97 35.38-12.48L35.38-12.48Q35.38-11.21 35.38-9.1L35.38-9.1Q35.42-2.77 35.05-1.76 34.67-0.75 32.48-0.97L32.48-0.97Q31.73-1.01 31.29-1.05L31.29-1.05Q28.74-1.23 28.7-1.1L28.7-1.1Q28.56-0.88 28.76-0.73 28.96-0.57 29.62-0.44L29.62-0.44Q31.51-0.04 32.41 0.79 33.31 1.63 33.62 3.21L33.62 3.21Q33.66 3.69 33.9 3.76 34.15 3.82 35.07 3.65L35.07 3.65Q36.87 3.34 37.81 2.68 38.76 2.02 39.16 0.88L39.16 0.88Q39.38 0.31 39.42-10.9L39.42-10.9Q39.46-21.67 39.64-22.41L39.64-22.41Q39.73-22.81 40.17-22.98L40.17-22.98Q40.25-23.03 40.34-23.07L40.34-23.07Q41.22-23.64 41.22-23.86 41.22-24.08 39.75-25.36 38.28-26.63 37.53-26.98L37.53-26.98Q37.13-27.2 36.91-27.14 36.69-27.07 36.34-26.63L36.34-26.63Q35.2-25.36 34.94-25.18L34.94-25.18Q34.37-24.83 31.33-24.83L31.33-24.83Q30.15-24.83 29.79-24.83 29.44-24.83 28.78-24.83L28.78-24.83Q25.27-24.83 24.74-25.14L24.74-25.14Q24.3-25.49 24.3-26.89L24.3-26.89Q24.3-27.25 24.3-27.42L24.3-27.42Q24.26-29.36 24.35-29.49L24.35-29.49Q24.57-30.19 26.5-30.28L26.5-30.28Q26.89-30.28 33.44-30.32L33.44-30.32Q40.08-30.37 41.2-30.43 42.32-30.5 42.45-30.85L42.45-30.85Q42.54-31.2 41.04-32.67 39.55-34.15 38.28-34.89L38.28-34.89Q37.88-35.11 37.62-34.96 37.35-34.8 36.69-33.88L36.69-33.88Q35.82-32.83 35.55-32.43L35.55-32.43Q35.07-31.82 34.37-31.71 33.66-31.6 29.79-31.6L29.79-31.6Q25.36-31.6 24.83-31.86L24.83-31.86Q24.35-32.48 24.35-33.53L24.35-33.53Q24.35-35.24 25.05-35.64L25.05-35.64Q26.1-36.25 23.69-37L23.69-37Q22.72-37.35 21.14-37.71L21.14-37.71Q20.04-37.97 19.95-37.79L19.95-37.79Q19.91-37.71 20-36.87L20-36.87Q20.52-31.99 19.34-31.68L19.34-31.68Q18.76-31.51 11.27-31.62 3.78-31.73 2.68-31.9L2.68-31.9Q2.33-31.99 2.37-31.68L2.37-31.68Q2.42-31.42 2.77-30.67L2.77-30.67Q3.16-29.93 3.34-29.84L3.34-29.84Q3.52-29.79 5.27-30.01L5.27-30.01Q7.78-30.32 13.93-30.32L13.93-30.32Q14.55-30.32 15.6-30.32L15.6-30.32Q19.29-30.32 19.82-30.01L19.82-30.01Q20.3-29.71 20.26-28.3L20.26-28.3Q20.26-28.26 20.26-28.13L20.26-28.13Q20.26-27.69 20.26-27.42L20.26-27.42Q20.26-27.25 20.26-26.94L20.26-26.94Q20.26-25.44 19.86-25.18L19.86-25.18Q19.29-24.83 15.86-24.83L15.86-24.83Q15.25-24.83 14.9-24.83L14.9-24.83Q11.03-24.83 10.31-24.94 9.58-25.05 7.51-25.97L7.51-25.97Q5.36-26.89 5.23-26.89 5.1-26.89 5.36-24.17L5.36-24.17Q5.63-21.58 5.58-12.63 5.54-3.69 5.27 0.83L5.27 0.83Q5.14 2.68 5.21 3.08 5.27 3.47 5.71 3.65ZM63.54 3.16L63.54 3.16Q63.59 3.6 63.7 3.76 63.81 3.91 64.07 3.82L64.07 3.82Q65.65 3.82 67.08 3.1 68.51 2.37 68.95 1.41L68.95 1.41Q69.3 0.62 69.37-0.35 69.43-1.32 69.48-6.77L69.48-6.77Q69.48-6.81 69.48-9.14L69.48-9.14Q69.48-13.14 69.74-13.8 70-14.46 71.63-14.41L71.63-14.41Q72.25-14.41 72.6-14.41L72.6-14.41Q74.88-14.41 75.32-14.24 75.76-14.06 75.81-13.1L75.81-13.1Q75.81-12.52 76.25-12.28 76.68-12.04 77.45-12.19 78.22-12.35 79.23-12.83L79.23-12.83Q80.07-13.23 80.18-13.45 80.29-13.67 80.24-14.72L80.24-14.72Q79.98-20.17 80.13-21.73 80.29-23.29 81.21-23.73L81.21-23.73Q82.13-24.13 81.52-24.87L81.52-24.87Q81.04-25.44 79.37-26.67L79.37-26.67Q78.09-27.64 77.74-27.64 77.39-27.64 76.6-26.72L76.6-26.72Q75.89-25.84 75.72-25.75L75.72-25.75Q75.1-25.44 70.71-25.4L70.71-25.4Q67.68-25.4 67.28-25.4L67.28-25.4Q59.28-25.4 58.89-25.53L58.89-25.53Q57.17-26.24 56.51-26.46L56.51-26.46Q54.49-27.29 54.4-27.07L54.4-27.07Q54.36-26.98 54.4-26.76L54.4-26.76Q54.71-24.79 54.76-20.52 54.8-16.26 54.58-12.92L54.58-12.92Q54.54-11.95 55.02-11.71 55.5-11.47 56.91-11.82L56.91-11.82Q58.84-12.3 58.84-13.23L58.84-13.23Q58.84-13.54 59.06-13.86 59.28-14.19 59.5-14.28L59.5-14.28Q59.77-14.41 62.16-14.41 64.56-14.41 64.82-14.28L64.82-14.28Q65.21-14.06 65.28-13.27 65.35-12.48 65.35-7.73L65.35-7.73Q65.35-7.16 65.35-6.15L65.35-6.15Q65.35-4.44 65.35-3.76 65.35-3.08 65.19-2.26 65.04-1.45 64.8-1.3 64.56-1.14 63.96-0.94 63.37-0.75 62.62-0.81 61.88-0.88 60.6-1.01L60.6-1.01Q59.72-1.1 59.24-1.14L59.24-1.14Q58.58-1.19 58.54-1.05L58.54-1.05Q58.45-0.83 58.67-0.7 58.89-0.57 59.63-0.4L59.63-0.4Q61.48-0.04 62.38 0.77 63.28 1.58 63.54 3.16ZM75.23-15.82L75.23-15.82Q74.88-15.64 67.39-15.62 59.9-15.6 59.55-15.78L59.55-15.78Q59.06-16 58.97-16.57 58.89-17.14 58.89-19.91L58.89-19.91Q58.89-22.85 58.89-22.94L58.89-22.94Q59.06-23.86 60.29-24.04L60.29-24.04Q61.08-24.13 67.41-24.13L67.41-24.13Q73.87-24.13 74.4-24.04L74.4-24.04Q75.67-23.86 75.85-22.98L75.85-22.98Q75.85-22.72 75.85-19.91L75.85-19.91Q75.85-17.09 75.76-16.55 75.67-16 75.23-15.82ZM47.46 1.27L47.46 1.27Q47.64 1.41 47.81 1.36 47.99 1.32 49.22 0.79L49.22 0.79Q54.84-1.76 59.59-6.02L59.59-6.02Q60.91-7.25 61.44-7.34L61.44-7.34Q62.75-7.56 60.78-8.61L60.78-8.61Q59.68-9.23 58.71-9.89L58.71-9.89Q57.39-10.72 57.26-10.68L57.26-10.68Q57.08-10.68 56.65-9.71L56.65-9.71Q54.14-4.57 48.3 0.18L48.3 0.18Q47.55 0.75 47.42 0.92 47.29 1.1 47.46 1.27ZM82.53 1.19L82.53 1.19Q83.8 1.67 84.7 0.9 85.61 0.13 85.39-1.27L85.39-1.27Q84.99-3.74 81.87-5.98 78.75-8.22 74.14-9.4L74.14-9.4Q73.56-9.54 73.32-9.49 73.08-9.45 73.23-9.18 73.39-8.92 73.87-8.53L73.87-8.53Q76.2-6.59 78.53-3.91 80.86-1.23 81.96 0.7L81.96 0.7Q82.18 1.05 82.53 1.19ZM48.74-29.71L48.74-29.71Q48.82-29.53 49.79-29.71L49.79-29.71Q51.86-30.01 54.1-30.06 56.34-30.1 69.57-30.15L69.57-30.15Q86.09-30.19 86.75-30.37L86.75-30.37Q86.92-30.41 87.06-30.63L87.06-30.63Q87.36-31.11 85.1-33.16 82.84-35.2 82.31-34.94L82.31-34.94Q81.78-34.63 80.6-32.7L80.6-32.7Q79.89-31.68 79.28-31.55 78.66-31.42 74.75-31.42L74.75-31.42Q74.44-31.42 73.92-31.42L73.92-31.42Q70.53-31.42 69.98-31.66 69.43-31.9 69.48-33.31L69.48-33.31Q69.48-33.53 69.48-33.62L69.48-33.62Q69.52-35.33 70.09-35.68L70.09-35.68Q71.1-36.21 69.39-36.87L69.39-36.87Q68.51-37.18 66.53-37.71L66.53-37.71Q65.26-38.01 65.08-37.95 64.91-37.88 65-37.27L65-37.27Q65.65-32.04 64.51-31.55L64.51-31.55Q64.07-31.38 56.76-31.44 49.44-31.51 48.16-31.73L48.16-31.73Q47.68-31.82 48.12-30.81L48.12-30.81Q48.34-30.23 48.74-29.71ZM94.61 3.38L94.61 3.38Q94.7 3.56 94.86 3.56 95.01 3.56 95.16 3.38 95.32 3.21 95.36 2.94L95.36 2.94Q95.45 2.59 96.5 1.41L96.5 1.41Q97.03 0.83 99.05-1.54L99.05-1.54Q100.55-3.3 101.01-3.45 101.47-3.6 102.22-2.46L102.22-2.46Q104.94 1.54 109.6 2.29L109.6 2.29Q111.8 2.64 121.03 2.64L121.03 2.64Q129.81 2.68 130.17 2.55L130.17 2.55Q130.34 2.42 130.39 2.07L130.39 2.07Q130.47 1.27 131.13 0.46 131.79-0.35 132.41-0.57L132.41-0.57Q133.15-0.83 132.93-1.19L132.93-1.19Q132.89-1.27 130.83-1.27L130.83-1.27Q125.86-1.19 118.15-1.23 110.43-1.27 109.47-1.41L109.47-1.41Q105.12-1.89 102.79-3.87L102.79-3.87Q101.95-4.53 101.84-5.1 101.73-5.67 101.69-8.88L101.69-8.88Q101.69-9.05 101.69-9.32L101.69-9.32Q101.69-12.17 101.8-12.7 101.91-13.23 102.7-13.58L102.7-13.58Q102.79-13.62 102.83-13.67L102.83-13.67Q103.36-13.93 103.56-14.13 103.75-14.33 103.58-14.72 103.4-15.12 102.88-15.6 102.35-16.08 101.29-16.92L101.29-16.92Q99.93-18.02 99.56-18.02 99.18-18.02 98.48-16.96L98.48-16.96Q97.51-15.56 96.77-15.31 96.02-15.07 93.34-15.38L93.34-15.38Q92.37-15.51 92.37-15.29L92.37-15.29Q92.37-15.21 92.55-14.85L92.55-14.85Q93.03-13.67 93.21-13.56 93.38-13.45 94.26-13.67L94.26-13.67Q96.86-14.41 97.38-13.71 97.91-13.01 97.91-8.75L97.91-8.75Q97.91-8.17 97.91-7.21L97.91-7.21Q97.95-4.39 97.6-3.82L97.6-3.82Q97.29-3.3 95.58-2.5L95.58-2.5Q95.1-2.24 94.79-2.11L94.79-2.11Q92.59-1.05 92.59-0.88L92.59-0.88Q92.59-0.66 94.61 3.38ZM114.57-2.5L114.57-2.5Q114.57-2.42 115.18-2.53 115.8-2.64 116.54-2.83 117.29-3.03 117.64-3.21L117.64-3.21Q118.17-3.47 118.43-3.65 118.7-3.82 118.98-4.26 119.27-4.7 119.36-5.08 119.44-5.45 119.53-6.48 119.62-7.51 119.64-8.5 119.66-9.49 119.71-11.51L119.71-11.51Q119.71-12.3 119.71-13.4 119.71-14.5 119.66-14.92 119.62-15.34 119.75-16 119.88-16.66 119.88-16.79 119.88-16.92 120.21-17.25 120.54-17.58 120.7-17.58 120.85-17.58 121.51-17.69 122.17-17.8 122.59-17.75 123-17.71 124.12-17.71 125.24-17.71 126.04-17.71L126.04-17.71Q131.57-17.71 132.06-18.19L132.06-18.19Q132.45-18.54 130.91-19.86L130.91-19.86Q130.74-20.04 130.52-20.21L130.52-20.21Q128.8-21.67 128.32-21.77 127.84-21.88 127.18-21.05L127.18-21.05Q125.95-19.42 125.49-19.2 125.02-18.98 122.78-18.98L122.78-18.98Q120.37-18.98 120.04-19.25 119.71-19.51 119.71-21.4L119.71-21.4Q119.71-23.25 120.06-23.53 120.41-23.82 122.87-23.86L122.87-23.86Q125.86-23.91 125.99-24.39L125.99-24.39Q126.04-24.52 125.86-24.83L125.86-24.83Q125.42-25.75 125.9-25.71L125.9-25.71Q126.34-25.66 128.01-24.57L128.01-24.57Q128.94-23.95 129.42-23.66 129.9-23.38 130.21-23.31 130.52-23.25 130.61-23.36 130.69-23.47 130.78-23.82L130.78-23.82Q131.22-25.8 132.63-26.81L132.63-26.81Q133.24-27.25 133.09-27.47 132.93-27.69 131.88-27.99L131.88-27.99Q128.54-28.92 125.38-30.7 122.21-32.48 120.19-34.54L120.19-34.54Q119.75-35.02 119.62-35.46 119.49-35.9 119.79-35.99L119.79-35.99Q121.11-36.43 118.34-37.44L118.34-37.44Q117.51-37.75 116.32-38.1L116.32-38.1Q114.96-38.54 114.79-38.32L114.79-38.32Q114.7-38.23 114.52-37.62L114.52-37.62Q113.51-34.15 110.65-30.26 107.8-26.37 104.24-23.64L104.24-23.64Q102.79-22.63 103.45-22.5L103.45-22.5Q103.84-22.41 107.18-24.39L107.18-24.39Q108.54-25.22 108.94-25.2 109.34-25.18 109.78-24.26L109.78-24.26Q110.13-23.51 110.3-23.4 110.48-23.29 110.92-23.47L110.92-23.47Q111.93-23.77 113.36-23.86 114.79-23.95 115.18-23.73L115.18-23.73Q115.8-23.42 115.77-21.42 115.75-19.42 115.14-19.12L115.14-19.12Q114.87-18.98 111.05-19.01 107.23-19.03 105.64-19.16L105.64-19.16Q104.59-19.25 104.5-19.16 104.41-19.07 104.85-18.24L104.85-18.24Q105.29-17.36 105.45-17.25 105.6-17.14 106.44-17.23L106.44-17.23Q106.92-17.31 107.64-17.38 108.37-17.45 109.25-17.51 110.13-17.58 110.48-17.62L110.48-17.62Q111.88-17.75 112.28-17.82 112.68-17.89 113.53-17.82 114.39-17.75 114.52-17.78 114.65-17.8 115.09-17.38 115.53-16.96 115.53-16.79 115.53-16.61 115.66-15.69 115.8-14.77 115.77-14.26 115.75-13.75 115.75-12.26L115.75-12.26Q115.75-8.04 115.53-7.43L115.53-7.43Q115.22-6.68 113.91-6.72L113.91-6.72Q113.73-6.72 112.06-6.86L112.06-6.86Q111.18-6.94 110.94-6.9 110.7-6.86 110.7-6.68L110.7-6.68Q110.7-6.37 111.45-6.2L111.45-6.2Q114.3-5.63 114.57-2.5ZM120.28-25.4L120.28-25.4Q119.75-25.05 115.2-25.14 110.65-25.22 110.21-25.58L110.21-25.58Q109.95-25.8 110.24-26.17 110.52-26.54 111.67-27.55L111.67-27.55Q115-30.41 117.07-33.18L117.07-33.18Q118.08-34.5 118.52-34.56 118.96-34.63 119.58-33.53L119.58-33.53Q120.63-31.6 122.34-29.53L122.34-29.53Q123.93-27.73 123.93-27.33L123.93-27.33Q123.88-27.29 123.68-27.31 123.49-27.33 123.2-27.4 122.92-27.47 122.74-27.51L122.74-27.51Q122.43-27.69 122.21-27.53 121.99-27.38 121.42-26.59L121.42-26.59Q120.72-25.66 120.28-25.4ZM103.67-5.67L103.67-5.67Q103.89-5.27 105.27-6.15 106.66-7.03 108.44-8.72 110.21-10.42 111.49-12.04L111.49-12.04Q112.24-12.96 112.52-13.25 112.81-13.54 113.25-13.62L113.25-13.62Q114.3-13.89 112.94-14.59L112.94-14.59Q112.81-14.68 112.59-14.77L112.59-14.77Q112.46-14.85 111.67-15.25 110.87-15.64 110.48-15.86L110.48-15.86Q109.25-16.61 109.05-16.57 108.85-16.52 108.59-15.42L108.59-15.42Q107.45-10.68 104.37-6.86L104.37-6.86Q103.62-5.8 103.67-5.67ZM128.32-5.84L128.32-5.84Q130.43-5.14 130.78-6.94L130.78-6.94Q131.18-8.79 129.46-11.21L129.46-11.21Q128.5-12.52 127.18-13.4L127.18-13.4Q124.28-15.34 122.65-15.47L122.65-15.47Q121.77-15.56 122.52-14.68L122.52-14.68Q125.77-10.99 127.13-7.25L127.13-7.25Q127.4-6.5 127.62-6.26 127.84-6.02 128.32-5.84ZM98.7-21.09L98.7-21.09Q99.4-20.79 100.15-21.09 100.9-21.4 101.21-22.06L101.21-22.06Q101.91-23.73 100.24-25.33 98.57-26.94 95.58-27.42L95.58-27.42Q93.08-27.82 93.08-27.38L93.08-27.38Q93.08-27.16 93.6-26.76L93.6-26.76Q96.2-24.74 98.22-21.45L98.22-21.45Q98.39-21.18 98.7-21.09ZM100.68-29.88L100.68-29.88Q102.08-29.4 102.9-30.56 103.71-31.73 102.96-33.22L102.96-33.22Q102.39-34.54 100.66-35.51 98.92-36.47 96.46-36.83L96.46-36.83Q95.19-37 95.16-36.76 95.14-36.52 96.42-35.24L96.42-35.24Q99.14-32.52 99.98-30.5L99.98-30.5Q100.2-30.06 100.68-29.88ZM158.16 3.74L158.16 3.74Q158.82 3.96 160.42 3.56 162.03 3.16 162.29 2.68L162.29 2.68Q162.42 2.5 162.29 0.7L162.29 0.7Q161.89-6.64 162.16-7.47L162.16-7.47Q162.33-8 162.6-8.09L162.6-8.09Q163.13-8.26 169.41-8.26L169.41-8.26Q176.13-8.26 176.84-8.61L176.84-8.61Q177.36-8.88 176.4-9.89L176.4-9.89Q176.22-10.06 175.87-10.42L175.87-10.42Q173.85-12.44 173.21-12.57 172.57-12.7 171.52-11.29 170.46-9.89 170-9.73 169.54-9.58 166.51-9.54L166.51-9.54Q166.2-9.54 165.67-9.54L165.67-9.54Q162.99-9.54 162.53-9.84 162.07-10.15 162.07-12.04L162.07-12.04Q162.07-12.35 162.07-12.52L162.07-12.52Q162.03-14.94 162.16-15.25L162.16-15.25Q162.42-15.91 164.27-16L164.27-16Q164.49-16 168.22-16.04L168.22-16.04Q172.66-16.08 173.43-16.15 174.2-16.22 174.24-16.7L174.24-16.7Q174.29-17.05 173.36-18.02 172.44-18.98 171.21-19.91L171.21-19.91Q170.64-20.3 170.4-20.32 170.16-20.35 169.91-20.13 169.67-19.91 169.06-19.03L169.06-19.03Q168.93-18.85 168.75-18.54L168.75-18.54Q168.18-17.67 167.61-17.49L167.61-17.49Q166.73-17.23 161.1-17.27L161.1-17.27Q159.65-17.31 158.77-17.31L158.77-17.31Q150.03-17.31 147.92-17.58L147.92-17.58Q147.52-17.67 147.57-17.4L147.57-17.4Q147.57-17.18 147.92-16.52L147.92-16.52Q148.36-15.64 148.56-15.56 148.75-15.47 149.9-15.64L149.9-15.64Q151.96-15.91 154.42-15.97 156.88-16.04 157.32-15.86L157.32-15.86Q157.98-15.51 157.94-12.79 157.9-10.06 157.24-9.71L157.24-9.71Q156.84-9.49 153.04-9.54 149.24-9.58 147-9.8L147-9.8Q146.25-9.89 146.16-9.8L146.16-9.8Q145.94-9.67 145.9-10.11L145.9-10.11Q145.77-10.68 145.9-12.7L145.9-12.7Q145.99-15.16 145.99-17.89L145.99-17.89Q145.99-18.41 145.94-19.29L145.94-19.29Q145.77-21.23 147.02-21.53 148.27-21.84 156.14-21.8L156.14-21.8Q159.48-21.8 161.54-21.8L161.54-21.8Q162.86-21.8 165.15-21.8L165.15-21.8Q173.72-21.8 175.14-21.84 176.57-21.88 176.7-22.15L176.7-22.15Q176.75-22.19 176.75-22.24L176.75-22.24Q176.92-22.54 175.98-23.58 175.03-24.61 173.76-25.62L173.76-25.62Q172.88-26.24 172.77-26.48 172.66-26.72 173.01-27.07L173.01-27.07Q173.23-27.29 173.14-29.22L173.14-29.22Q172.88-34.19 173.54-34.19L173.54-34.19Q173.67-34.19 173.91-34.5 174.16-34.8 174.11-34.89L174.11-34.89Q173.94-35.38 170.29-36.3L170.29-36.3Q168.75-36.69 168.66-36.56L168.66-36.56Q168.57-36.43 168.66-35.82L168.66-35.82Q169.41-29.66 168.35-29.14L168.35-29.14Q168-28.96 164.29-28.98 160.58-29 160.27-29.18L160.27-29.18Q159.61-29.62 159.68-32.34 159.74-35.07 160.44-35.73L160.44-35.73Q161.06-36.34 160.18-36.74L160.18-36.74Q159.52-37.05 157.37-37.57L157.37-37.57Q155.61-38.01 155.43-37.95 155.26-37.88 155.39-36.74L155.39-36.74Q156.14-29.66 155.13-29.14L155.13-29.14Q154.78-28.96 151.08-28.96 147.39-28.96 147.08-29.14L147.08-29.14Q146.29-29.49 146.36-31.68 146.43-33.88 147.26-34.37L147.26-34.37Q148.18-34.98 145.94-35.73L145.94-35.73Q145.02-35.99 143.57-36.34L143.57-36.34Q142.38-36.65 142.29-36.47L142.29-36.47Q142.25-36.34 142.29-35.9L142.29-35.9Q142.78-32.65 142.43-26.67L142.43-26.67Q142.38-25.58 142.71-25.36 143.04-25.14 144.32-25.4L144.32-25.4Q146.43-25.8 146.43-26.5L146.43-26.5Q146.43-27.33 147.08-27.69L147.08-27.69Q147.39-27.86 157.72-27.86 168.05-27.86 168.35-27.69L168.35-27.69Q169.01-27.38 169.01-26.59L169.01-26.59Q169.01-26.28 169.21-26.21 169.41-26.15 170.51-26.15L170.51-26.15Q171.78-26.15 171.83-25.8 171.87-25.44 170.77-23.99L170.77-23.99Q170.68-23.91 170.6-23.73L170.6-23.73Q170.24-23.12 169.12-23.03 168-22.94 161.63-22.94L161.63-22.94Q159.35-22.94 158.03-22.94L158.03-22.94Q147.48-22.98 146.25-23.2L146.25-23.2Q145.55-23.33 143.92-24.17L143.92-24.17Q143.13-24.61 142.56-24.74L142.56-24.74 141.9-24.87Q141.72-24.96 141.72-24.7L141.72-24.7Q141.68-24.57 141.72-23.77L141.72-23.77Q141.81-22.28 141.79-16.46 141.77-10.63 141.68-9.58L141.68-9.58Q140.98-2.2 137.94 2.37L137.94 2.37Q137.24 3.43 137.68 3.52 138.12 3.6 140.36 1.45L140.36 1.45Q143.96-2.02 145.24-7.6L145.24-7.6Q145.55-8.88 145.99-9.23L145.99-9.23Q146.16-9.4 146.34-9.1L146.34-9.1Q146.43-8.92 146.69-8.48L146.69-8.48Q147.04-7.87 147.24-7.8 147.44-7.73 148.71-7.91L148.71-7.91Q151.08-8.22 154.01-8.28 156.93-8.35 157.32-8.13L157.32-8.13Q158.29-7.56 157.63 1.41L157.63 1.41Q157.54 2.9 157.61 3.23 157.68 3.56 158.16 3.74Z" transform="translate(-2.3658974170684814, 38.393333435058594)"></path></g> <!----> <!----> <!----> <!----> <!----> <!----> <!----></g></g> <g data-gra="path-slogan" fill-rule="" class="tp-slogan iconsvg-slogansvg" fill="#e72e5d" transform="translate(42.93840789794922,48.2470817565918)"><!----> <!----> <g transform="scale(1, 1)"><g transform="scale(1)"><path d="M2.30-8.58L6.61-1.64L6.61-8.58L7.73-8.58L7.73 0L6.42 0L2.06-6.94L2.02-6.94L2.02 0L0.89 0L0.89-8.58L2.30-8.58ZM15.19 0L14.34-2.48L10.88-2.48L9.98 0L8.81 0L12.05-8.58L13.36-8.58L16.45 0L15.19 0ZM12.61-7.31L11.25-3.52L13.92-3.52L12.66-7.31L12.61-7.31ZM18.89-8.58L23.20-1.64L23.20-8.58L24.33-8.58L24.33 0L23.02 0L18.66-6.94L18.61-6.94L18.61 0L17.48 0L17.48-8.58L18.89-8.58ZM25.41-1.92L25.41-2.77L26.48-2.77L26.48-2.16Q26.48-0.75 27.80-0.75L27.80-0.75Q29.16-0.75 29.16-2.25L29.16-2.25L29.16-8.58L30.33-8.58L30.33-2.30Q30.28 0.09 27.84 0.14L27.84 0.14Q25.55 0.09 25.41-1.92L25.41-1.92ZM32.30-8.58L33.47-8.58L33.47 0L32.30 0L32.30-8.58ZM36.84-8.58L41.16-1.64L41.16-8.58L42.28-8.58L42.28 0L40.97 0L36.61-6.94L36.56-6.94L36.56 0L35.44 0L35.44-8.58L36.84-8.58ZM50.48-3.61L47.86-3.61L47.86-4.59L51.61-4.59L51.61 0L50.86 0L50.58-1.08Q49.59 0.09 47.77 0.14L47.77 0.14Q46.03 0.14 45.09-0.75L45.09-0.75Q43.69-2.06 43.73-4.36L43.73-4.36Q44.06-8.63 47.81-8.81L47.81-8.81Q51-8.63 51.47-6L51.47-6L50.34-6Q49.88-7.78 47.77-7.83L47.77-7.83Q45.09-7.64 44.95-4.31L44.95-4.31Q44.95-0.75 47.81-0.75L47.81-0.75Q48.84-0.75 49.59-1.31L49.59-1.31Q50.53-2.06 50.48-3.61L50.48-3.61ZM58.92-7.59L56.02-7.59L56.02-8.58L62.95-8.58L62.95-7.59L60.05-7.59L60.05 0L58.92 0L58.92-7.59ZM69.66-3.19L69.66-8.58L70.83-8.58L70.83-3.05Q70.69 0.05 67.31 0.14L67.31 0.14Q64.17 0.05 64.03-2.86L64.03-2.86L64.03-8.58L65.20-8.58L65.20-3.19Q65.25-0.84 67.36-0.80L67.36-0.80Q69.66-0.84 69.66-3.19L69.66-3.19ZM73.31-5.53L72.42-5.53L72.42-8.58L73.31-8.58L73.31-5.53ZM80.53 0L79.69-2.48L76.22-2.48L75.33 0L74.16 0L77.39-8.58L78.70-8.58L81.80 0L80.53 0ZM77.95-7.31L76.59-3.52L79.27-3.52L78-7.31L77.95-7.31ZM84.23-8.58L88.55-1.64L88.55-8.58L89.67-8.58L89.67 0L88.36 0L84-6.94L83.95-6.94L83.95 0L82.83 0L82.83-8.58L84.23-8.58Z" transform="translate(-0.890625, 8.8125)"></path></g></g></g></g></g><defs v-gra="od"></defs></svg>